<?xml version="1.0" encoding="UTF-8" standalone="no"?>
<svg
   xmlns:dc="http://purl.org/dc/elements/1.1/"
   xmlns:cc="http://creativecommons.org/ns#"
   xmlns:rdf="http://www.w3.org/1999/02/22-rdf-syntax-ns#"
   xmlns:svg="http://www.w3.org/2000/svg"
   xmlns="http://www.w3.org/2000/svg"
   viewBox="0 0 600 600"
   height="1200"
   width="1200"
   xml:space="preserve"
   version="1.1"
   id="svg2"><metadata
     id="metadata8"><rdf:RDF><cc:Work
         rdf:about=""><dc:format>image/svg+xml</dc:format><dc:type
           rdf:resource="http://purl.org/dc/dcmitype/StillImage" /></cc:Work></rdf:RDF></metadata><defs
     id="defs6" /><g
     transform="matrix(1.25,0,0,-1.25,0,600)"
     id="g10"><g
       transform="scale(0.1,0.1)"
       id="g12"><path
         id="path14"
         style="fill:#99cccc;fill-opacity:1;fill-rule:evenodd;stroke:none"
         d="m 2.08984,5.16016 4787.99996,0 0,4788.00004 -4787.99996,0 0,-4788.00004 z" /><path
         id="path16"
         style="fill:#7db2b2;fill-opacity:1;fill-rule:evenodd;stroke:none"
         d="m 4790.09,3520.98 0,-3515.81984 -4284.695,0 -137.418,1855.67984 380.75,-81.01 -317.047,770.97 500.695,411.96 315.465,-289.6 2387.14,1363.78 1155.11,-515.96" /><path
         id="path18"
         style="fill:#699e9e;fill-opacity:1;fill-rule:evenodd;stroke:none"
         d="m 4459.11,2962.76 330.98,-299.75 0,-1646.55 -831.68,1534.34 500.7,411.96" /><path
         id="path20"
         style="fill:#ffffff;fill-opacity:1;fill-rule:evenodd;stroke:none"
         d="m 2362.78,2781.84 c 273.24,-74.8 447.6,-307.7 389.43,-520.22 -58.16,-212.52 -326.82,-324.18 -600.06,-249.39 -273.24,74.79 -447.6,307.69 -389.44,520.21 58.17,212.52 326.83,324.18 600.07,249.4" /><path
         id="path22"
         style="fill:#e6e6e6;fill-opacity:1;fill-rule:evenodd;stroke:none"
         d="m 2362.78,2781.84 c 251.73,-68.91 419.52,-272 398.91,-469.73 -141.72,-131.75 -380.39,-184.11 -621.98,-117.99 -165.35,45.26 -301.22,137.6 -388.13,250.86 -0.36,29.23 3.22,58.53 11.13,87.46 58.17,212.52 326.83,324.18 600.07,249.4" /><path
         id="path24"
         style="fill:#cccccc;fill-opacity:1;fill-rule:evenodd;stroke:none"
         d="m 2333.53,2941.12 -189.62,-442.98 c -58.61,-136.93 175.8,-230.03 234.43,-88.44 l 220,531.42 -9.8,106.26 -255.01,-106.26" /><path
         id="path26"
         style="fill:#ffffff;fill-opacity:1;fill-rule:nonzero;stroke:none"
         d="m 1899.44,1433.29 c 148.55,247.14 1296.18,-133.42 1290.91,137.62 -3.61,185.88 -268.17,306.29 -333.62,462.44 -111.98,267.2 518.94,313.09 450.07,477.4 -43.4,103.55 -338.78,197.24 -590.59,277.1 -218.78,69.39 -292.47,68.81 -430.47,209.7 l 21.96,21.6 c 130.15,-132.87 238.65,-145.04 417.8,-201.85 258.07,-81.85 560.8,-177.86 609.78,-294.72 86.42,-206.19 -549.19,-240.89 -450.07,-477.4 65.56,-156.41 331.9,-267.36 335.91,-473.79 6.2,-318.99 -1168.32,77.92 -1301.7,-167.13 l -19.98,29.03" /><path
         id="path28"
         style="fill:#999999;fill-opacity:1;fill-rule:evenodd;stroke:none"
         d="m 2415.3,2502.46 c -34.29,-82.83 -291.15,-50.48 -255.87,31.94 l 56.59,132.21 266.73,-1.25 -67.45,-162.9" /><path
         id="path30"
         style="fill:#ffffff;fill-opacity:1;fill-rule:evenodd;stroke:none"
         d="m 1223.59,4045.19 2373.52,0 c 50.34,0 91.53,-41.19 91.53,-91.54 l 0,-1294.65 c 0,-50.35 -41.19,-91.54 -91.53,-91.54 l -2373.52,0 c -50.35,0 -91.54,41.19 -91.54,91.54 l 0,1294.65 c 0,50.35 41.19,91.54 91.54,91.54" /><path
         id="path32"
         style="fill:#1a1a1a;fill-opacity:1;fill-rule:evenodd;stroke:none"
         d="m 1132.05,2730.93 2556.6,0 0,1131.18 -2556.6,0 0,-1131.18 z" /><path
         id="path34"
         style="fill:#333333;fill-opacity:1;fill-rule:evenodd;stroke:none"
         d="m 1132.05,3862.11 2556.59,0 -2556.59,-1131.18 0,1131.18" /><path
         id="path36"
         style="fill:#ffffff;fill-opacity:1;fill-rule:evenodd;stroke:none"
         d="M 867.496,2360.65 2213.82,1218.66 c 27.42,-23.27 30.83,-64.74 7.56,-92.16 L 1828.03,662.762 c -23.26,-27.422 -64.73,-30.828 -92.16,-7.563 L 389.551,1797.19 c -27.426,23.26 -30.832,64.73 -7.567,92.16 l 393.352,463.73 c 23.266,27.43 64.734,30.83 92.16,7.57" /><path
         id="path38"
         style="fill:#b2b2b2;fill-opacity:1;fill-rule:evenodd;stroke:none"
         d="M 736.234,2306.98 2182.28,1080.4 2142.1,1033.03 696.051,2259.61 l 40.183,47.37" /><path
         id="path40"
         style="fill:#b2b2b2;fill-opacity:1;fill-rule:evenodd;stroke:none"
         d="M 656.309,2212.75 2102.35,986.168 2062.17,938.797 616.121,2165.38 l 40.188,47.37" /><path
         id="path42"
         style="fill:#b2b2b2;fill-opacity:1;fill-rule:evenodd;stroke:none"
         d="M 576.375,2118.52 2022.43,891.938 1982.24,844.566 536.195,2071.15 l 40.18,47.37" /><path
         id="path44"
         style="fill:#b2b2b2;fill-opacity:1;fill-rule:evenodd;stroke:none"
         d="M 496.445,2024.29 1942.49,797.707 1902.31,750.336 456.262,1976.92 l 40.183,47.37" /><path
         id="path46"
         style="fill:#ffffff;fill-opacity:1;fill-rule:evenodd;stroke:none"
         d="m 330.934,2962.76 c 99.718,0 199.679,0 299.82,0 100.262,0 200.82,0 301.621,0 -23.301,-95.67 -43.273,-177.61 -60.539,-248.47 -15.078,-61.89 -28.387,-116.51 -40.207,-164.96 -66.91,0.24 -133.742,0.49 -200.414,0.74 -66.59,0.24 -133.145,0.48 -199.535,0.73 -11.836,48.36 -25.153,102.87 -40.246,164.58 -17.266,70.57 -37.231,152.17 -60.5,247.38" /><path
         id="path48"
         style="fill:#e6e6e6;fill-opacity:1;fill-rule:evenodd;stroke:none"
         d="m 630.98,2760.66 c 49.446,-0.09 93.102,-12.42 122.821,-31.57 28.652,-18.46 43.64,-42.86 39.222,-68.35 -4.195,-24.22 -25.097,-45.04 -54.746,-59.41 -28.691,-13.92 -66.324,-22.22 -107.039,-22.09 -40.761,0.14 -78.367,8.71 -106.992,22.78 -29.578,14.54 -50.367,35.41 -54.578,59.57 -4.441,25.47 10.289,49.72 38.773,68 29.559,18.97 73.09,31.16 122.539,31.07" /><path
         id="path50"
         style="fill:#b2b2b2;fill-opacity:1;fill-rule:evenodd;stroke:none"
         d="m 631.055,2716.38 c 54.879,-0.12 96.902,-25.79 93.925,-55.48 -2.757,-27.92 -44.777,-49.28 -93.808,-49.14 -49.074,0.19 -90.949,21.75 -93.828,49.67 -3.012,29.65 38.836,55.07 93.711,54.95" /><path
         id="path52"
         style="fill:#999999;fill-opacity:1;fill-rule:evenodd;stroke:none"
         d="m 631.063,2709.53 c 48.042,-0.09 85.093,-22.5 82.789,-48.6 -2.184,-24.7 -39.184,-43.68 -82.684,-43.55 -43.543,0.12 -80.484,19.32 -82.695,44.02 -2.336,26.06 34.543,48.22 82.59,48.13" /><path
         id="path54"
         style="fill:#666666;fill-opacity:1;fill-rule:evenodd;stroke:none"
         d="m 631.063,2704.21 c 42.796,-0.08 75.957,-19.89 74.16,-43.26 -1.754,-22.18 -34.91,-39.31 -74.059,-39.2 -39.191,0.15 -72.281,17.44 -74.062,39.63 -1.914,23.3 31.168,42.91 73.961,42.83" /><path
         id="path56"
         style="fill:#e6e6e6;fill-opacity:1;fill-rule:evenodd;stroke:none"
         d="m 630.832,2927.68 c 68.395,-0.01 119.977,-38.52 115.496,-82.59 -4.203,-40.84 -55.75,-71.75 -115.355,-71.68 -59.559,0.13 -111.035,31.16 -115.278,71.91 -4.632,44 46.743,82.38 115.137,82.36" /><path
         id="path58"
         style="fill:#b2b2b2;fill-opacity:1;fill-rule:evenodd;stroke:none"
         d="m 630.848,2891.57 c 38.511,-0.02 68.445,-21.25 66.949,-46.44 -1.43,-24.03 -31.32,-42.78 -66.844,-42.74 -35.574,0.04 -65.484,18.88 -66.945,42.89 -1.524,25.16 28.332,46.31 66.84,46.29" /><path
         id="path60"
         style="fill:#999999;fill-opacity:1;fill-rule:evenodd;stroke:none"
         d="m 630.852,2885.96 c 33.753,-0.02 60.214,-18.65 59.058,-40.82 -1.117,-21.3 -27.531,-37.92 -58.961,-37.88 -31.48,0.07 -57.91,16.72 -59.051,38.01 -1.183,22.11 25.2,40.71 58.954,40.69" /><path
         id="path62"
         style="fill:#666666;fill-opacity:1;fill-rule:evenodd;stroke:none"
         d="m 630.855,2881.59 c 30.141,-0.04 53.778,-16.59 52.852,-36.45 -0.894,-19.07 -24.488,-34.07 -52.758,-34 -28.32,0.03 -51.933,15.07 -52.851,34.13 -0.95,19.8 22.617,36.35 52.757,36.32" /><path
         id="path64"
         style="fill:#e6e6e6;fill-opacity:1;fill-rule:evenodd;stroke:none"
         d="m 330.934,2962.76 101.078,245.29 422.023,0 78.34,-245.29 -601.441,0" /><path
         id="path66"
         style="fill:#ffffff;fill-opacity:1;fill-rule:evenodd;stroke:none"
         d="m 3857.66,2962.76 c 99.73,0 199.69,0 299.82,0 100.27,0 200.83,0 301.63,0 -23.3,-95.67 -43.27,-177.61 -60.54,-248.47 -15.08,-61.89 -28.39,-116.51 -40.21,-164.96 -66.91,0.24 -133.74,0.49 -200.41,0.74 -66.59,0.24 -133.15,0.48 -199.54,0.73 -11.83,48.36 -25.15,102.87 -40.25,164.58 -17.26,70.57 -37.23,152.17 -60.5,247.38" /><path
         id="path68"
         style="fill:#e6e6e6;fill-opacity:1;fill-rule:evenodd;stroke:none"
         d="m 4157.71,2760.66 c 49.45,-0.09 93.1,-12.42 122.83,-31.57 28.65,-18.46 43.64,-42.86 39.21,-68.35 -4.19,-24.22 -25.09,-45.04 -54.74,-59.41 -28.69,-13.92 -66.32,-22.22 -107.04,-22.09 -40.76,0.14 -78.36,8.71 -106.99,22.78 -29.58,14.54 -50.37,35.41 -54.58,59.57 -4.44,25.47 10.29,49.72 38.78,68 29.55,18.97 73.09,31.16 122.53,31.07" /><path
         id="path70"
         style="fill:#b2b2b2;fill-opacity:1;fill-rule:evenodd;stroke:none"
         d="m 4157.79,2716.38 c 54.87,-0.12 96.9,-25.79 93.92,-55.48 -2.75,-27.92 -44.77,-49.28 -93.8,-49.14 -49.08,0.19 -90.95,21.75 -93.83,49.67 -3.01,29.65 38.83,55.07 93.71,54.95" /><path
         id="path72"
         style="fill:#999999;fill-opacity:1;fill-rule:evenodd;stroke:none"
         d="m 4157.79,2709.53 c 48.05,-0.09 85.1,-22.5 82.79,-48.6 -2.18,-24.7 -39.18,-43.68 -82.68,-43.55 -43.54,0.12 -80.48,19.32 -82.69,44.02 -2.34,26.06 34.54,48.22 82.58,48.13" /><path
         id="path74"
         style="fill:#666666;fill-opacity:1;fill-rule:evenodd;stroke:none"
         d="m 4157.8,2704.21 c 42.79,-0.08 75.95,-19.89 74.15,-43.26 -1.75,-22.18 -34.9,-39.31 -74.05,-39.2 -39.2,0.15 -72.28,17.44 -74.06,39.63 -1.92,23.3 31.16,42.91 73.96,42.83" /><path
         id="path76"
         style="fill:#e6e6e6;fill-opacity:1;fill-rule:evenodd;stroke:none"
         d="m 4157.57,2927.68 c 68.39,-0.01 119.97,-38.52 115.49,-82.59 -4.2,-40.84 -55.75,-71.75 -115.36,-71.68 -59.55,0.13 -111.03,31.16 -115.27,71.91 -4.63,44 46.74,82.38 115.14,82.36" /><path
         id="path78"
         style="fill:#b2b2b2;fill-opacity:1;fill-rule:evenodd;stroke:none"
         d="m 4157.58,2891.57 c 38.51,-0.02 68.45,-21.25 66.95,-46.44 -1.43,-24.03 -31.32,-42.78 -66.84,-42.74 -35.58,0.04 -65.49,18.88 -66.95,42.89 -1.53,25.16 28.33,46.31 66.84,46.29" /><path
         id="path80"
         style="fill:#999999;fill-opacity:1;fill-rule:evenodd;stroke:none"
         d="m 4157.59,2885.96 c 33.75,-0.02 60.21,-18.65 59.05,-40.82 -1.12,-21.3 -27.53,-37.92 -58.96,-37.88 -31.48,0.07 -57.91,16.72 -59.05,38.01 -1.18,22.11 25.2,40.71 58.96,40.69" /><path
         id="path82"
         style="fill:#666666;fill-opacity:1;fill-rule:evenodd;stroke:none"
         d="m 4157.59,2881.59 c 30.14,-0.04 53.78,-16.59 52.85,-36.45 -0.9,-19.07 -24.49,-34.07 -52.76,-34 -28.32,0.03 -51.93,15.07 -52.85,34.13 -0.95,19.8 22.62,36.35 52.76,36.32" /><path
         id="path84"
         style="fill:#e6e6e6;fill-opacity:1;fill-rule:evenodd;stroke:none"
         d="m 3857.66,2962.76 101.09,245.29 422.02,0 78.34,-245.29 -601.45,0" /></g></g></svg>